# xmcd
#
# Track frame offsets:
#	150
#	20131
#	39232
#	55543
#	74393
#	93681
#	110405
#	126756
#
# Disc length: 1963 seconds
#
# Revision: 1
# Processed by: cddbd v1.5PL3 Copyright (c) Steve Scherf et al.
# Submitted via: audiograbber 1.82.01
#
DISCID=6807a908
DTITLE=4 Cats - Ya Antar
DYEAR=1900
DGENRE=
TTITLE0=Rakasni Dakhlak
TTITLE1=Sherah
TTITLE2=Amelli Antar
TTITLE3=Ayez Tektebli Kalam
TTITLE4=Amo Najeeb
TTITLE5=Menrouh W Mnerja3
TTITLE6=Shouq El Ayam
TTITLE7=Machi El Tafnis
EXTD=
EXTT0=
EXTT1=
EXTT2=
EXTT3=
EXTT4=
EXTT5=
EXTT6=
EXTT7=
PLAYORDER=
